<svg
  width="458.323303"
  height="83.617188"
  viewBox="0 0 458.323 83.6172"
  fill="none"
  xmlns="http://www.w3.org/2000/svg"
  xmlns:xlink="http://www.w3.org/1999/xlink"
>
  <defs />
  <path
    id="ShareInLink"
    d="M12.51 76.37Q16.12 77.46 20.06 77.46Q20.32 77.46 20.57 77.45Q24.74 77.38 28.89 76.12Q32.23 75.11 35.15 73.39Q36.1 72.82 37 72.18Q39.56 70.38 41.41 68.02Q42.23 66.97 42.91 65.81Q43.06 65.56 43.19 65.3Q45.14 61.68 45.14 57.02Q45.14 52.12 43.05 48.72Q42.39 47.62 41.6 46.62Q39.94 44.5 37.73 42.82Q34.47 40.31 30.77 38.25Q27.07 36.18 23.81 34.12Q20.55 32.06 18.49 29.53Q17.83 28.71 17.38 27.8Q16.42 25.84 16.42 23.41Q16.42 20.43 18 16.8Q19.59 13.14 22.47 9.84Q24.12 7.93 26.08 6.43Q27.54 5.3 29.17 4.4Q30.61 3.61 32.14 3.12Q34.71 2.29 37.54 2.29Q40.61 2.29 41.76 3.39Q42 3.62 42.19 3.89Q42.91 4.9 42.91 6.42Q42.91 8.53 42.04 11.17Q41.2 13.82 40.07 16.61Q38.97 19.38 38.1 21.98Q37.26 24.56 37.26 26.57Q37.26 28.11 37.96 29.21Q37.96 29.22 37.96 29.22Q37.98 29.25 38.01 29.28Q38.74 30.33 40.42 30.72Q41.95 28.21 43.68 24.63Q45.42 21.02 46.61 17.03Q47.81 13.05 47.81 9.58Q47.81 6.08 46.22 3.59Q45.94 3.15 45.6 2.74Q43.4 0 37.73 0Q31.52 0 26.5 2.43Q26.48 2.45 26.46 2.46Q22.29 4.47 19.1 7.51Q18.43 8.15 17.81 8.83Q14.22 12.77 12.3 17.17Q10.38 21.58 10.38 25.64Q10.38 29.49 12.06 32.35Q12.26 32.69 12.49 33.02Q14.6 36.09 17.9 38.46Q21.23 40.8 24.96 42.91Q28.71 45.02 32.01 47.34Q35.34 49.64 37.45 52.61Q37.78 53.07 38.06 53.57Q39.56 56.21 39.56 59.71Q39.56 63.1 38.12 65.69Q37.6 66.61 36.91 67.42Q36.49 67.93 36.02 68.39Q33.61 70.8 30.14 72.14Q27.31 73.23 24.39 73.57Q23.05 73.73 21.7 73.73Q16.71 73.73 13.45 71.85Q10.98 70.43 9.47 68.33Q8.98 67.65 8.6 66.91Q8.01 65.77 7.64 64.57Q7 62.52 7 60.28Q7 56.92 8.34 53.57Q8.55 53.06 8.78 52.55Q10.1 49.77 12.3 47.41Q9.7 47.41 6.82 48.58Q6.2 48.83 5.63 49.14Q3.51 50.32 1.96 52.52Q0 55.28 0 60.28Q0 65.72 2.52 69.45Q2.67 69.67 2.83 69.89Q3.9 71.34 5.23 72.51Q7.41 74.43 10.26 75.58Q11.37 76.03 12.51 76.37ZM203.45 72.76Q201.67 74.37 201.31 77.55Q204.78 76.89 208.27 76.54Q211.79 76.21 215.37 76.12Q218.98 76.03 222.66 75.98Q226.36 75.93 230.21 75.93Q232.22 75.93 235.25 75.25Q238.27 74.57 241.06 71.81Q236.56 71.71 230.89 70.99Q225.22 70.26 220.22 69.98Q222.92 68.15 224.84 63.93Q226.76 59.71 228.29 53.55Q229.25 49.73 230.35 44.41Q231.45 39.07 232.6 33.16Q233.77 27.25 234.82 21.75Q235.88 16.21 236.63 11.95Q237.4 7.68 237.8 5.67Q240 5.55 242.63 5.55L248.25 5.55Q250.18 5.55 252.71 5.03Q255.26 4.5 257.58 2.2Q255.36 1.82 251.23 1.4Q247.11 0.96 242.16 0.58Q237.22 0.18 232.41 0.18Q222.73 0.18 218.11 2.06Q214.45 3.55 213.28 6.17Q212.98 6.83 212.84 7.57Q216.38 6.91 219.4 6.53Q222.43 6.14 225.92 5.95Q229.43 5.76 234.43 5.67Q233.49 8.43 232.27 13.19Q231.07 17.95 229.72 23.9Q228.38 29.85 226.83 36.35Q225.31 42.82 223.72 49.05Q222.15 55.28 220.41 60.72Q218.7 66.14 216.97 69.89Q212.93 69.89 209.47 70.35Q206.02 70.85 203.86 72.42Q203.65 72.58 203.45 72.76ZM56.06 72.71Q56.3 72.77 56.56 72.77Q56.61 72.77 56.65 72.77Q57.94 72.7 59.14 70.85Q60.38 68.92 61.62 65.9Q62.89 62.88 64.27 59.53Q65.68 56.15 67.25 53.13Q68.84 50.1 70.76 48.18Q72.14 46.81 73.75 46.42Q74.39 46.26 75.08 46.26Q75.95 46.26 76.66 46.59Q77.22 46.85 77.68 47.32Q78.73 48.37 78.73 50.88Q78.73 53.17 78.01 55.78Q77.28 58.35 76.51 60.86Q75.76 63.35 75.76 65.36Q75.76 67.05 76.46 68.37Q76.84 69.08 77.42 69.67Q77.53 69.79 77.65 69.89Q79.32 71.41 82.37 71.41Q83.23 71.41 84.08 71.29Q86.91 70.9 89.56 69.21Q92.69 67.22 95.34 63.93Q95.25 64.82 95.25 65.67Q95.25 69.61 97.22 71.58Q97.26 71.62 97.31 71.67Q98.18 72.5 99.22 72.98Q100.63 73.64 102.35 73.64Q102.58 73.64 102.8 73.62Q106.11 73.46 109.29 70.85Q112.71 68.06 116.84 62.48Q116.74 63.25 116.65 63.98Q116.55 64.71 116.55 65.27Q116.55 66.12 116.75 66.93Q117.12 68.5 118.22 69.89Q118.49 70.23 118.81 70.51Q120.48 72 123.47 72Q126.91 72 130.5 69.77Q134.11 67.57 137.27 63.65Q139.64 60.73 141.35 57.12Q142.66 54.71 144.46 50.88Q146.88 45.79 149.11 40.12Q150.91 41.36 152.69 42.86Q152.95 43.07 153.17 43.32Q154.47 44.78 154.47 47.41Q154.47 49.92 153.16 53.03Q151.87 56.15 150.53 59.32Q149.2 62.48 149.2 65.36Q149.2 67.19 149.99 68.55Q150.41 69.27 151.05 69.86Q151.19 69.99 151.34 70.11Q153.17 71.6 156.21 71.6Q156.85 71.6 157.48 71.54Q160.94 71.21 164.22 69.11Q168.11 66.63 171.28 62.74Q171.47 62.5 171.66 62.26Q171.67 65.29 172.91 67.71Q173.57 69 174.59 70.12Q174.87 70.43 175.18 70.71Q178.08 73.33 183.36 73.33Q184.04 73.33 184.73 73.28Q188.82 73 192.8 70.99Q197.47 68.64 201.45 64.42Q205.43 60.18 208.04 54.42L206.89 53.55Q205.32 56.56 203.31 59.23Q202.23 60.67 201.03 62.01Q197.58 65.85 193.55 68.2Q189.88 70.33 186.1 70.52Q185.74 70.54 185.37 70.54Q183.17 70.54 181.67 69.86Q180.45 69.32 179.65 68.41Q179.48 68.22 179.33 68.01Q178.86 67.36 178.54 66.65Q178.28 66.04 178.13 65.39Q177.8 63.93 177.8 62.48Q177.8 61.73 177.9 60.86Q177.99 60 178.18 59.03Q182.3 58.66 186.47 57.07Q190.67 55.47 194.16 52.99Q197.68 50.48 199.83 47.27Q201.27 45.14 201.75 42.81Q201.99 41.63 201.99 40.4Q201.99 37.16 200.41 35.92Q200.27 35.81 200.11 35.71Q199.15 35.11 198.11 34.82Q197.11 34.54 196.04 34.54Q191.82 34.54 187.48 37.19Q183.17 39.84 179.56 44.06Q175.97 48.28 173.82 53.08Q172.47 56.09 171.96 58.91Q170.27 61.08 168.18 63.07Q165.89 65.27 163.42 66.72Q160.99 68.15 158.69 68.15Q157.75 68.15 157 67.78Q156.83 67.69 156.67 67.59Q156.64 67.57 156.61 67.54Q155.81 66.94 155.81 65.27Q155.81 63.25 157 60.58Q158.22 57.89 159.42 54.91Q160.61 51.93 160.61 49.05Q160.61 46.05 159.18 44.1Q159.15 44.06 159.11 44.01Q157.76 42.21 156.03 40.9Q155.88 40.78 155.71 40.66Q153.79 39.25 152.29 38.15Q151.02 37.2 150.84 36.08Q150.82 35.9 150.82 35.71Q150.82 35.41 151.33 34.03Q151.87 32.64 151.87 32.15Q151.87 31.68 151.73 30.77Q151.67 30.38 151.45 30.16Q151.14 29.85 150.53 29.85Q149.76 29.85 148.12 31.68Q147.83 32 147.6 32.36Q146.5 34 146.5 36.37Q146.5 37.05 146.74 37.63Q146.98 38.21 147.46 38.69Q145.36 44.83 143.17 49.64Q141.73 52.84 140.66 55.02Q136.76 61.52 132.96 64.94Q128.74 68.74 126.14 68.74Q125.16 68.74 124.48 68.28Q123.98 67.94 123.66 67.35Q122.97 66.11 122.89 64.82Q122.88 64.66 122.88 64.5Q122.88 62.78 123.75 60.82Q124.62 58.85 125.67 56.92Q126.73 55 127.59 53.53Q128.46 52.03 128.46 51.16Q128.46 50.83 128.34 50.56Q128.17 50.19 127.78 49.92Q127.1 49.42 126.19 49.14Q125.3 48.86 124.71 48.77Q124.62 48.77 124.22 49.33Q122.32 52.21 119.81 55.68Q117.33 59.13 114.59 62.34Q111.84 65.55 109.24 67.64Q106.66 69.7 104.46 69.7Q103.61 69.7 103.04 69.3Q101.86 68.48 101.86 65.95Q101.86 63.16 103.01 59.62Q104.16 56.06 106.17 52.42Q108.19 48.77 110.79 45.65Q113.39 42.51 116.16 40.66Q118.94 38.78 121.64 38.78Q123.72 38.78 124.81 39.82Q125.07 40.07 125.27 40.38Q125.39 40.55 125.49 40.72Q126.35 42.19 126.35 44.15Q126.35 44.92 126.19 45.84Q126.05 46.75 125.86 47.5Q127.97 47.5 129.26 46.66Q129.38 46.58 129.49 46.49Q130.57 45.57 130.57 43.38Q130.57 41.66 129.87 40.3Q129.24 39.08 128.06 38.15Q127.73 37.89 127.38 37.66Q125.08 36.18 121.83 36.18Q118.08 36.18 114.28 38.1Q110.51 40.03 107.09 43.24Q106.35 43.93 105.65 44.66Q103.1 47.29 100.99 50.34Q98.32 54.23 96.8 58.21Q96.63 58.65 96.47 59.09Q95.75 60.18 94.95 61.21Q92.26 64.71 89.51 66.82Q86.79 68.92 84.59 68.92Q83.84 68.92 83.25 68.62Q82.84 68.41 82.51 68.06Q81.71 67.19 81.71 65.27Q81.71 62.88 82.76 60.3Q83.82 57.7 84.83 54.91Q85.3 53.6 85.55 52.25Q85.83 50.72 85.83 49.14Q85.83 48 85.62 46.9Q85.44 45.97 85.11 45.07Q84.68 43.92 83.96 43Q83.45 42.34 82.79 41.81Q81.22 40.5 78.52 40.5Q77.56 40.5 76.64 40.68Q75.08 40.98 73.62 41.81Q71.33 43.1 69.26 45.46Q67.2 47.81 65.37 50.92Q63.57 54.04 61.97 57.75Q60.38 61.42 59.04 65.36Q58.95 64.71 58.9 63.93Q58.86 63.16 58.86 62.1Q58.86 59.5 59.23 56.2Q59.63 52.89 60.43 49.45Q61.25 45.98 62.4 43.19Q65.77 41.17 69.03 37.68Q72.29 34.17 75.08 29.95Q77.87 25.73 79.97 21.37Q82.08 16.99 83.28 13.14Q84.47 9.3 84.47 6.63Q84.47 4.71 83.75 2.64Q83.28 1.25 82.34 0.79Q81.88 0.56 81.31 0.56Q79.2 0.56 76.32 3.84Q73.44 7.1 70.18 12.58Q66.92 18.04 63.8 24.77Q60.69 31.47 58.18 38.48Q55.69 45.49 54.15 51.84Q52.62 58.17 52.62 62.78Q52.62 66.63 53.68 69.7Q54.58 72.34 56.06 72.71ZM68.87 34.07Q66.33 37.33 63.66 39.44Q64.52 36.65 65.56 33.92Q66.71 30.93 68.07 28.03Q70.67 22.45 73.34 18.04Q76.04 13.64 78.1 10.99Q80.16 8.34 80.84 8.34Q80.93 8.34 81 8.38Q81.08 8.42 81.12 8.5Q81.22 8.64 81.22 9.11Q81.22 10.54 80.26 13.42Q79.29 16.31 77.56 19.87Q75.85 23.41 73.62 27.11Q71.42 30.82 68.87 34.07ZM184.51 54.67Q181.25 56.34 178.67 57.21Q179.63 53.76 181.53 50.32Q183.45 46.85 185.84 43.96Q188.26 41.08 190.83 39.3Q193.43 37.52 195.76 37.52Q196.98 37.52 197.36 38.09Q197.37 38.09 197.37 38.1Q197.77 38.69 197.77 39.75Q197.77 40.42 197.68 41.07Q197.34 43.42 195.8 45.6Q193.83 48.37 190.81 50.69Q187.79 52.99 184.51 54.67ZM273.29 69.42Q274.98 71.03 278.21 71.03Q280.06 71.03 281.74 70.49Q283.38 69.97 284.85 68.92Q287.82 66.82 290.31 63.16Q292.81 59.5 294.83 54.82L293.78 53.55Q292.04 57.11 289.77 60.58Q287.52 64.03 285.13 66.28Q282.76 68.5 280.38 68.53Q280.35 68.53 280.32 68.53Q279.52 68.53 278.9 68.2Q278.55 68.01 278.26 67.73Q277.44 66.91 277.44 64.89Q277.44 64.49 277.47 64.09Q277.61 62.09 278.45 60.14Q279.46 57.79 280.42 55.26Q281.38 52.71 281.38 49.73Q281.38 47.69 280.73 45.89Q280.33 44.79 279.69 43.78Q279.15 42.9 278.38 42.3Q276.8 41.08 274.28 41.08Q270.62 41.08 266.96 43.68Q263.33 46.26 260.12 50.15Q256.91 54.04 254.31 57.98Q255.64 54.04 256.51 50.46Q257.38 46.85 257.38 45.3Q257.38 44.1 256.78 43.48Q256.14 42.82 254.8 42.82Q254.34 42.82 253.9 42.89Q253.02 43.04 252.2 43.5Q250.96 44.15 250.37 44.83Q250.37 48 249.31 51.84Q248.26 55.68 246.92 59.34Q245.56 62.97 244.56 65.48Q243.55 67.96 243.55 68.43Q243.64 68.55 243.73 68.67Q244.48 69.55 245.73 70Q246.16 70.17 246.6 70.29Q247.58 70.54 248.64 70.54Q250.56 67.38 253.04 63.35Q254.24 61.42 255.52 59.56Q256.93 57.51 258.43 55.54Q261.31 51.75 264.39 49.31Q267.46 46.85 270.43 46.85Q271.54 46.85 272.41 47.31Q272.82 47.53 273.17 47.85Q274.28 48.86 274.28 51.53Q274.28 53.76 273.6 56.1Q272.94 58.45 272.21 60.67Q271.49 62.88 271.49 64.89Q271.49 66.69 272.25 68.06Q272.62 68.73 273.17 69.3Q273.23 69.36 273.29 69.42Z"
    fill="#161B22"
    fill-opacity="1.000000"
    fill-rule="evenodd"
  />
  <path
    id="ShareInLink"
    d="M322.41 76Q326.6 77.46 330.05 77.46Q332.62 77.46 334.67 76.43Q335.39 76.07 336.05 75.58Q338.61 73.73 340.13 69.3Q338.98 69.88 337.77 70.24Q337.37 70.36 336.96 70.45Q335.32 70.85 333.31 70.85Q329.77 70.85 325.53 69.93Q321.31 69.02 316.79 67.64Q312.29 66.23 307.88 64.89Q310.67 60.67 313.06 55.26Q315.47 49.82 317.63 43.78Q319.79 37.73 321.71 31.87L323.54 31.87Q329.37 31.78 333.68 29.62Q338.02 27.44 340.81 24.04Q343.6 20.64 344.93 16.85Q346.27 13.05 346.27 9.79Q346.27 5.95 344.72 3.84Q343.42 2.04 341.67 1.15Q341.36 0.99 341.04 0.86Q338.89 0 336.96 0Q335.38 0 333.93 0.43Q332.02 0.99 330.33 2.29Q327.35 4.59 324.85 8.64Q322.36 12.67 320.3 17.81Q318.24 22.94 316.32 28.71Q315.61 28.31 314.98 27.81Q313.47 26.63 312.38 24.91Q310.85 22.45 310.85 18.82Q310.85 17.46 311.14 15.65Q311.42 13.82 312.1 12.86Q311.11 12.86 310.27 13.21Q309.55 13.51 308.93 14.06Q308.59 14.36 308.29 14.71Q307.41 15.7 306.87 16.99Q306.14 18.72 306.14 20.43Q306.14 21.23 306.29 22Q306.76 24.39 308.68 26.5Q311.23 29.27 315.66 30.72L311.82 42.82Q309.89 48.86 307.93 54.23Q305.96 59.6 303.66 63.65Q300.38 62.78 297.35 62.22Q294.33 61.64 291.85 61.64Q288 61.64 286.43 62.88Q285.33 63.74 284.99 64.84Q284.84 65.32 284.84 65.85Q284.84 67.38 285.94 69.35Q287.04 71.32 289.2 72.75Q289.3 72.81 289.41 72.88Q291.5 74.2 294.43 74.2Q296.39 74.2 298.14 73.6Q299.15 73.25 300.1 72.7Q302.7 71.22 305.09 68.53Q309.4 70.45 313.81 72.51Q318.24 74.57 322.41 76ZM438.6 72.26Q439.81 72.77 441.23 72.77Q444.58 72.77 447.98 70.12Q451.4 67.47 454.17 63.3Q456.25 60.19 457.53 56.79Q457.97 55.62 458.32 54.42L457.36 53.46Q455.44 57.89 453.16 61.4Q450.91 64.89 448.4 67Q446.39 68.72 444.16 69.04Q443.65 69.11 443.13 69.11Q442.43 69.11 441.8 68.9Q440.73 68.53 439.87 67.54Q438.54 65.95 437.62 63.75Q436.71 61.52 436.22 59.5Q435.75 57.49 435.65 56.74Q437.08 56.74 439.33 56.1Q441.61 55.47 443.86 54.18Q444.54 53.79 445.16 53.32Q446.59 52.24 447.7 50.74Q447.99 50.35 448.22 49.93Q449.3 48.01 449.3 45.49Q449.3 43.7 448.66 42.19Q448.03 40.7 446.79 39.46Q445.58 38.25 444.13 37.62Q442.58 36.96 440.74 36.96Q440.22 36.96 439.7 37.01Q436.7 37.35 433.92 39.65Q430.66 42.32 427.87 46.57Q427.45 47.2 427.05 47.84Q424.76 51.48 422.93 55.4Q420.77 60 419.25 63.84Q419.25 58.85 420.82 51.51Q422.41 44.15 425.58 36.37Q429.8 33.79 433.38 30.14Q436.99 26.48 439.64 22.35Q442.29 18.23 443.72 14.15Q445.15 10.07 445.15 6.82Q445.15 4.21 444.33 2.39Q443.7 0.94 442.71 0.64Q442.45 0.56 442.17 0.56Q440.46 0.56 437.67 3.75Q434.88 6.91 431.62 12.3Q428.37 17.67 425.08 24.3Q421.83 30.91 419.08 37.96Q416.37 45.02 414.73 51.56Q414.34 53.1 414.04 54.56Q412.49 57.61 410.54 60.58Q408.29 64.03 405.9 66.28Q403.53 68.5 401.14 68.53Q401.12 68.53 401.09 68.53Q400.29 68.53 399.66 68.2Q399.32 68.01 399.03 67.73Q398.21 66.91 398.21 64.89Q398.21 64.49 398.24 64.09Q398.38 62.09 399.22 60.14Q400.22 57.79 401.18 55.26Q402.15 52.71 402.15 49.73Q402.15 47.69 401.49 45.89Q401.1 44.79 400.46 43.78Q399.91 42.9 399.15 42.3Q397.57 41.08 395.04 41.08Q391.39 41.08 387.73 43.68Q384.1 46.26 380.89 50.15Q377.68 54.04 375.07 57.98Q376.41 54.04 377.28 50.46Q378.15 46.85 378.15 45.3Q378.15 44.1 377.55 43.48Q376.9 42.82 375.57 42.82Q375.11 42.82 374.67 42.89Q373.79 43.04 372.97 43.5Q371.72 44.15 371.14 44.83Q371.14 48 370.08 51.84Q369.71 53.18 369.31 54.5Q365.45 61.92 361.97 64.99Q358.27 68.25 355.01 68.25Q352.62 68.25 351.45 67.1Q350.3 65.95 350.3 62.48Q350.3 59.13 351.77 55.45Q353.27 51.75 355.29 48.39Q357.31 45.02 358.78 42.44Q360.28 39.84 360.28 38.69Q360.28 37.83 359.86 37.31Q359.77 37.2 359.65 37.1Q359.42 36.9 359.16 36.77Q358.72 36.56 358.17 36.56Q356.25 36.56 354.24 38.64Q352.22 40.71 350.44 43.96Q348.68 47.22 347.32 50.92Q345.99 54.63 345.17 57.98Q344.37 61.33 344.37 63.53Q344.37 66.25 345.54 68.3Q345.82 68.8 346.17 69.25Q346.57 69.76 347.05 70.15Q348.81 71.6 351.75 71.6Q352.48 71.6 353.2 71.52Q358.1 71.03 362.65 67.19Q364.54 65.6 366.1 63.51Q365.69 64.57 365.32 65.48Q364.32 67.96 364.32 68.43Q364.41 68.55 364.5 68.67Q365.25 69.55 366.5 70Q366.93 70.17 367.37 70.29Q368.35 70.54 369.4 70.54Q371.32 67.38 373.81 63.35Q375.01 61.42 376.29 59.56Q377.69 57.51 379.2 55.54Q382.08 51.75 385.15 49.31Q388.22 46.85 391.2 46.85Q392.31 46.85 393.17 47.31Q393.59 47.53 393.94 47.85Q395.04 48.86 395.04 51.53Q395.04 53.76 394.36 56.1Q393.71 58.45 392.98 60.67Q392.25 62.88 392.25 64.89Q392.25 66.69 393.02 68.06Q393.39 68.73 393.94 69.3Q394 69.36 394.06 69.42Q395.75 71.03 398.98 71.03Q400.83 71.03 402.51 70.49Q404.14 69.97 405.61 68.92Q408.59 66.82 411.07 63.16Q412.22 61.49 413.26 59.6Q413.08 61.42 413.08 63.07Q413.08 65.27 413.23 67.33Q413.39 69.39 414.09 70.73Q414.41 71.33 414.91 71.66Q415.54 72.09 416.46 72.09Q416.76 72.09 417.06 72.04Q417.89 71.92 418.66 71.46Q419.72 70.85 420.3 69.11Q421.05 66.91 422.2 63.56Q423.37 60.18 424.99 56.46Q426.63 52.71 428.69 49.4Q430.76 46.07 433.33 44.01Q435.28 42.47 437.42 42.08Q438.16 41.95 438.91 41.95Q440.08 41.95 441.06 42.37Q441.7 42.64 442.26 43.1Q442.83 43.54 443.18 44.12Q443.72 45.03 443.72 46.26Q443.72 47.65 443.22 48.83Q442.85 49.7 442.22 50.46Q441.83 50.92 441.39 51.34Q440.18 52.5 438.63 53.32Q436.52 54.42 434.51 54.96Q432.49 55.47 431.44 55.47Q431.44 57.7 431.95 60.63Q432.01 60.96 432.08 61.28Q432.62 63.85 433.59 66.32Q434.69 69.11 436.62 70.94Q437.52 71.8 438.6 72.26ZM326.78 29.3Q324.65 30.04 322.27 30.04Q324.78 22.66 327.12 16.38Q329.49 10.07 332.07 6.23Q334.47 2.67 337.2 2.41Q337.42 2.39 337.64 2.39Q338.1 2.39 338.53 2.5Q339.34 2.73 340.04 3.39Q341.09 4.4 341.09 7.19Q341.09 10.07 339.8 13.92Q338.51 17.76 336.05 21.46Q334.34 24.04 332.1 26.03Q331.15 26.87 330.1 27.6Q328.53 28.7 326.78 29.3ZM433.01 26.91Q430.4 29.97 427.19 32.53Q429.98 26.1 432.96 20.6Q435.94 15.07 438.28 11.71Q440.65 8.34 441.61 8.34Q441.68 8.34 441.74 8.37Q441.81 8.43 441.84 8.55Q441.89 8.74 441.89 9.21Q441.89 11.62 440.06 15.79Q438.26 19.96 434.93 24.49Q434.01 25.73 433.01 26.91ZM361.35 27.3Q362.24 27.65 363.26 27.65Q363.9 27.65 364.51 27.52Q366.12 27.19 367.55 25.96Q369.39 24.39 369.51 22.69Q369.52 22.57 369.52 22.45Q369.52 20.94 368.77 20.25Q368.71 20.2 368.65 20.15Q367.78 19.47 366.35 19.47Q364.03 19.47 361.67 20.97Q359.76 22.17 359.4 23.73Q359.32 24.09 359.32 24.46Q359.32 25.53 359.83 26.24Q360.1 26.61 360.52 26.88Q360.92 27.13 361.35 27.3ZM295.54 71.26Q294.81 71.41 294.05 71.41Q292.06 71.41 290.56 70.55Q289.82 70.12 289.2 69.49Q287.32 67.57 287.32 65.95Q287.32 65.47 287.53 65.11Q287.7 64.82 288 64.61Q288.68 64.12 290.51 64.12Q292.81 64.12 295.64 64.94Q298.48 65.76 301.46 67Q299.91 69.11 298.04 70.26Q296.83 71 295.54 71.26Z"
    fill="#3871E0"
    fill-opacity="1.000000"
    fill-rule="evenodd"
  />
  <line
    id="直线 1"
    x1="292.585938"
    y1="81.117188"
    x2="455.585938"
    y2="81.117188"
    stroke="#3871E0"
    stroke-opacity="1.000000"
    stroke-width="5.000000"
  />
</svg>
