<svg
  width="398.204590"
  height="77.460938"
  viewBox="0 0 398.205 77.4609"
  fill="none"
  xmlns="http://www.w3.org/2000/svg"
  xmlns:xlink="http://www.w3.org/1999/xlink"
>
  <defs />
  <path
    id="LocalShare"
    d="M37.57 76Q41.76 77.46 45.21 77.46Q47.77 77.46 49.83 76.43Q50.55 76.07 51.21 75.58Q53.76 73.73 55.28 69.3Q54.14 69.88 52.93 70.24Q52.53 70.36 52.12 70.45Q50.48 70.85 48.46 70.85Q44.92 70.85 40.68 69.93Q36.46 69.02 31.94 67.64Q27.44 66.23 23.03 64.89Q25.82 60.67 28.21 55.26Q30.63 49.82 32.78 43.78Q34.94 37.73 36.86 31.87L38.69 31.87Q44.53 31.78 48.84 29.62Q53.17 27.44 55.96 24.04Q58.75 20.64 60.09 16.85Q61.42 13.05 61.42 9.79Q61.42 5.95 59.88 3.84Q58.58 2.04 56.82 1.15Q56.52 0.99 56.2 0.86Q54.04 0 52.12 0Q50.54 0 49.08 0.43Q47.17 0.99 45.49 2.29Q42.51 4.59 40 8.64Q37.52 12.67 35.46 17.81Q33.39 22.94 31.47 28.71Q30.77 28.31 30.14 27.81Q28.63 26.63 27.53 24.91Q26.01 22.45 26.01 18.82Q26.01 17.46 26.29 15.65Q26.57 13.82 27.25 12.86Q26.27 12.86 25.43 13.21Q24.71 13.51 24.09 14.06Q23.75 14.36 23.44 14.71Q22.57 15.7 22.03 16.99Q21.3 18.72 21.3 20.43Q21.3 21.23 21.45 22Q21.91 24.39 23.83 26.5Q26.39 29.27 30.82 30.72L26.97 42.82Q25.05 48.86 23.08 54.23Q21.11 59.6 18.82 63.65Q15.53 62.78 12.51 62.22Q9.49 61.64 7 61.64Q3.16 61.64 1.59 62.88Q0.48 63.74 0.15 64.84Q0 65.32 0 65.85Q0 67.38 1.1 69.35Q2.2 71.32 4.35 72.75Q4.46 72.81 4.56 72.88Q6.66 74.2 9.58 74.2Q11.54 74.2 13.3 73.6Q14.31 73.25 15.25 72.7Q17.85 71.22 20.25 68.53Q24.56 70.45 28.96 72.51Q33.39 74.57 37.57 76ZM171.36 70.55Q173.11 72 176.06 72Q176.85 72 177.62 71.88Q181.92 71.27 185.74 67.24Q190.26 62.48 194.1 54.32L192.68 53.55Q191.03 57.3 188.76 60.82Q186.51 64.31 183.96 66.63Q181.48 68.87 178.96 68.92Q178.91 68.92 178.85 68.92Q177.79 68.92 177 68.47Q176.21 68.01 175.68 67.1Q174.63 65.27 174.63 61.52Q174.63 59.32 174.96 56.88Q175.28 54.42 175.87 51.84Q180.09 48.37 183.89 43.59Q185.33 41.77 186.68 39.88Q188.9 36.8 190.89 33.56Q194.1 28.31 196.45 23.17Q198.82 18.04 200.1 13.87Q201.39 9.7 201.39 7.1Q201.39 5.76 201.02 4.07Q200.64 2.39 199.96 1.19Q199.46 0.3 198.74 0.07Q198.5 0 198.23 0Q196.61 0 193.78 3.25Q190.94 6.51 187.57 12Q184.21 17.46 180.84 24.14Q177.49 30.82 174.65 37.82Q171.84 44.83 170.1 51.16Q169.56 53.15 169.19 54.97Q165.27 61.51 161.46 64.94Q157.24 68.74 154.64 68.74Q153.66 68.74 152.98 68.28Q152.48 67.94 152.15 67.35Q151.47 66.11 151.39 64.82Q151.38 64.66 151.38 64.5Q151.38 62.78 152.25 60.82Q153.12 58.85 154.17 56.92Q155.23 55 156.09 53.53Q156.96 52.03 156.96 51.16Q156.96 50.83 156.84 50.56Q156.67 50.19 156.28 49.92Q155.6 49.42 154.69 49.14Q153.8 48.86 153.21 48.77Q153.12 48.77 152.72 49.33Q150.82 52.21 148.31 55.68Q145.83 59.13 143.08 62.34Q140.34 65.55 137.74 67.64Q135.16 69.7 132.96 69.7Q132.11 69.7 131.54 69.3Q130.36 68.48 130.36 65.95Q130.36 63.16 131.51 59.62Q132.65 56.06 134.67 52.42Q136.69 48.77 139.29 45.65Q141.89 42.51 144.65 40.66Q147.44 38.78 150.14 38.78Q152.22 38.78 153.31 39.82Q153.57 40.07 153.77 40.38Q153.89 40.55 153.99 40.72Q154.85 42.19 154.85 44.15Q154.85 44.92 154.69 45.84Q154.55 46.75 154.36 47.5Q156.47 47.5 157.76 46.66Q157.88 46.58 157.99 46.49Q159.07 45.57 159.07 43.38Q159.07 41.66 158.37 40.3Q157.74 39.08 156.56 38.15Q156.23 37.89 155.87 37.66Q153.58 36.18 150.33 36.18Q146.58 36.18 142.78 38.1Q139.01 40.03 135.58 43.24Q134.85 43.93 134.14 44.66Q131.6 47.29 129.49 50.34Q126.82 54.23 125.3 58.21Q124.92 59.18 124.64 60.11Q123.72 61.47 122.67 62.69Q119.32 66.63 115.43 68.74Q111.54 70.85 107.69 70.85Q104.28 70.85 102.69 69.14Q102.37 68.79 102.12 68.36Q101.57 67.4 101.23 66.37Q100.69 64.71 100.69 62.88Q100.69 59.32 102.16 55.28Q102.75 53.71 103.47 52.19Q104.58 49.83 106.01 47.62Q108.37 43.96 111.12 41.67Q113.86 39.35 116.44 39.35Q117.62 39.35 118.06 39.92Q118.08 39.95 118.1 39.98Q118.55 40.59 118.55 41.76Q118.55 43.87 117.49 46.21Q116.44 48.56 115.01 49.33Q115.76 50.29 116.73 50.61Q117.23 50.78 117.8 50.78Q118.63 50.78 119.34 50.48Q120.49 49.98 121.29 48.67Q121.48 48.35 121.65 48.01Q122.58 46.12 122.58 43.78Q122.58 43.16 122.49 42.56Q122.22 40.7 121.12 38.97Q120.91 38.63 120.64 38.33Q119.1 36.67 115.78 36.67Q112.12 36.67 108.37 38.83Q104.62 40.99 101.55 44.64Q101.2 45.06 100.87 45.49Q98.27 48.8 96.61 52.85Q95.86 54.69 95.41 56.58Q94.78 57.36 94.03 57.98Q92.15 59.5 90.23 60.14Q88.31 60.77 86.79 60.77Q86.06 60.77 85.37 60.63Q84.21 60.41 83.13 59.81Q85.92 55.57 87.72 51.02Q89.55 46.45 89.55 42.72Q89.55 39.53 88.22 37.42Q88.1 37.24 87.96 37.07Q86.54 35.32 82.94 35.32Q80.81 35.32 79.12 36.18Q78.45 36.53 77.86 37Q77.65 37.17 77.45 37.35Q75.63 38.97 74.62 41.48Q74.53 41.7 74.45 41.93Q73.52 44.5 73.52 47.41Q73.52 48.31 73.61 49.2Q73.87 52.02 75 54.77Q76.42 58.17 78.91 60.32Q79.05 60.44 79.19 60.56Q76.5 63.93 73.71 66.09Q70.94 68.25 68.93 68.25Q68.23 68.25 67.65 67.98Q66.95 67.66 66.42 66.96Q65.46 65.67 65.46 62.78Q65.46 60.96 66.18 58.38Q66.91 55.78 67.97 53.13Q69.02 50.48 70.22 48.42Q71.41 46.35 72.28 45.58Q71.81 45.39 71.27 45.25Q70.75 45.11 70.26 45.11Q70.2 45.11 70.14 45.11Q68.19 45.17 66.28 46.85Q64.31 48.56 62.72 51.35Q61.15 54.14 60.18 57.3Q59.22 60.46 59.22 63.44Q59.22 67.03 60.87 69.53Q60.9 69.58 60.93 69.63Q61.26 70.11 61.68 70.5Q63.45 72.18 66.82 72.18Q70.45 72.18 74.34 69.3Q78.23 66.42 81.49 62.1Q82.54 62.57 83.69 62.83Q84.86 63.07 86.11 63.07Q89.27 63.07 92.76 61.19Q93.02 61.05 93.26 60.91Q94.12 60.38 94.88 59.69Q94.76 60.94 94.76 62.2Q94.76 68.34 97.83 71.41Q99.07 72.65 100.56 73.39Q102.75 74.48 105.49 74.48Q105.87 74.48 106.26 74.46Q110.58 74.27 114.8 71.88Q119.41 69.3 123.26 64.75Q123.55 64.41 123.83 64.05Q123.75 64.87 123.75 65.67Q123.75 69.61 125.72 71.58Q125.76 71.62 125.81 71.67Q126.68 72.5 127.72 72.98Q129.13 73.64 130.85 73.64Q131.08 73.64 131.3 73.62Q134.61 73.46 137.79 70.85Q141.21 68.06 145.33 62.48Q145.24 63.25 145.15 63.98Q145.05 64.71 145.05 65.27Q145.05 66.12 145.25 66.93Q145.62 68.5 146.72 69.89Q146.99 70.23 147.31 70.51Q148.98 72 151.97 72Q155.41 72 159 69.77Q162.61 67.57 165.77 63.65Q167.25 61.83 168.48 59.73Q168.37 60.97 168.37 62.1Q168.37 66.32 170.15 69.16Q170.66 69.97 171.36 70.55ZM41.94 29.3Q39.81 30.04 37.42 30.04Q39.93 22.66 42.28 16.38Q44.64 10.07 47.22 6.23Q49.63 2.67 52.36 2.41Q52.58 2.39 52.8 2.39Q53.26 2.39 53.68 2.5Q54.5 2.73 55.19 3.39Q56.25 4.4 56.25 7.19Q56.25 10.07 54.96 13.92Q53.67 17.76 51.21 21.46Q49.5 24.04 47.26 26.03Q46.3 26.87 45.25 27.6Q43.68 28.7 41.94 29.3ZM183.25 40.85Q180.09 45.21 176.74 48.56Q178.35 43 180.7 37.24Q183.07 31.47 185.64 26.2Q188.25 20.92 190.73 16.8Q193.24 12.67 195.11 10.24Q196.99 7.78 197.76 7.78Q197.95 7.78 198.18 8.06Q198.42 8.34 198.42 9.3Q198.42 11.22 197.27 14.74Q196.12 18.23 194.01 22.66Q191.9 27.07 189.16 31.78Q186.42 36.46 183.25 40.85ZM84.89 50.64Q83.32 54.51 80.93 58.07Q79.29 56.15 78.47 53.32Q77.65 50.48 77.65 47.71Q77.65 43.47 79.66 40.71Q81.7 37.92 83.6 37.92Q84 37.92 84.35 38.05Q85.12 38.32 85.66 39.21Q86.48 40.5 86.48 43.28Q86.48 46.75 84.89 50.64ZM10.69 71.26Q9.97 71.41 9.21 71.41Q7.22 71.41 5.72 70.55Q4.98 70.12 4.35 69.49Q2.48 67.57 2.48 65.95Q2.48 65.47 2.69 65.11Q2.86 64.82 3.16 64.61Q3.84 64.12 5.67 64.12Q7.96 64.12 10.8 64.94Q13.64 65.76 16.61 67Q15.07 69.11 13.19 70.26Q11.99 71 10.69 71.26Z"
    fill="#161B22"
    fill-opacity="1.000000"
    fill-rule="evenodd"
  />
  <path
    id="LocalShare"
    d="M202.67 76.37Q206.28 77.46 210.22 77.46Q210.48 77.46 210.74 77.45Q214.91 77.38 219.06 76.12Q222.4 75.11 225.31 73.39Q226.26 72.82 227.17 72.18Q229.73 70.38 231.57 68.02Q232.39 66.97 233.07 65.81Q233.22 65.56 233.36 65.3Q235.3 61.68 235.3 57.02Q235.3 52.12 233.21 48.72Q232.55 47.62 231.76 46.62Q230.1 44.5 227.89 42.82Q224.64 40.31 220.93 38.25Q217.23 36.18 213.97 34.12Q210.71 32.06 208.65 29.53Q207.99 28.71 207.55 27.8Q206.59 25.84 206.59 23.41Q206.59 20.43 208.16 16.8Q209.75 13.14 212.64 9.84Q214.29 7.93 216.24 6.43Q217.71 5.3 219.34 4.4Q220.78 3.61 222.31 3.12Q224.87 2.29 227.71 2.29Q230.78 2.29 231.92 3.39Q232.16 3.62 232.35 3.89Q233.07 4.9 233.07 6.42Q233.07 8.53 232.21 11.17Q231.36 13.82 230.24 16.61Q229.14 19.38 228.27 21.98Q227.42 24.56 227.42 26.57Q227.42 28.11 228.12 29.21L228.13 29.22Q228.15 29.25 228.17 29.28Q228.9 30.33 230.59 30.72Q232.11 28.21 233.85 24.63Q235.58 21.02 236.78 17.03Q237.97 13.05 237.97 9.58Q237.97 6.08 236.38 3.59Q236.1 3.15 235.77 2.74Q233.57 0 227.89 0Q221.69 0 216.66 2.43Q216.64 2.45 216.62 2.46Q212.46 4.47 209.27 7.51Q208.6 8.15 207.97 8.83Q204.39 12.77 202.46 17.17Q200.54 21.58 200.54 25.64Q200.54 29.49 202.23 32.35Q202.43 32.69 202.65 33.02Q204.76 36.09 208.07 38.46Q211.39 40.8 215.12 42.91Q218.87 45.02 222.17 47.34Q225.5 49.64 227.61 52.61Q227.94 53.07 228.22 53.57Q229.72 56.21 229.72 59.71Q229.72 63.1 228.28 65.69Q227.77 66.61 227.07 67.42Q226.65 67.93 226.19 68.39Q223.78 70.8 220.3 72.14Q217.47 73.23 214.55 73.57Q213.22 73.73 211.86 73.73Q206.87 73.73 203.61 71.85Q201.14 70.43 199.63 68.33Q199.15 67.65 198.76 66.91Q198.17 65.77 197.8 64.57Q197.17 62.52 197.17 60.28Q197.17 56.92 198.5 53.57Q198.71 53.06 198.95 52.55Q200.26 49.77 202.46 47.41Q199.86 47.41 196.98 48.58Q196.37 48.83 195.79 49.14Q193.68 50.32 192.13 52.52Q190.16 55.28 190.16 60.28Q190.16 65.72 192.69 69.45Q192.84 69.67 193 69.89Q194.07 71.34 195.39 72.51Q197.57 74.43 200.42 75.58Q201.53 76.03 202.67 76.37ZM246.22 72.71Q246.47 72.77 246.72 72.77Q246.77 72.77 246.81 72.77Q248.1 72.7 249.3 70.85Q250.54 68.92 251.79 65.9Q253.05 62.88 254.44 59.53Q255.84 56.15 257.41 53.13Q259.01 50.1 260.93 48.18Q262.3 46.81 263.91 46.42Q264.56 46.26 265.24 46.26Q266.11 46.26 266.82 46.59Q267.38 46.85 267.84 47.32Q268.9 48.37 268.9 50.88Q268.9 53.17 268.17 55.78Q267.44 58.35 266.67 60.86Q265.92 63.35 265.92 65.36Q265.92 67.05 266.62 68.37Q267 69.08 267.58 69.67Q267.69 69.79 267.81 69.89Q269.48 71.41 272.53 71.41Q273.4 71.41 274.25 71.29Q277.07 70.9 279.72 69.21Q282.85 67.22 285.51 63.93Q285.41 64.82 285.41 65.67Q285.41 69.61 287.38 71.58Q287.43 71.62 287.48 71.67Q288.35 72.5 289.38 72.98Q290.79 73.64 292.51 73.64Q292.74 73.64 292.97 73.62Q296.27 73.46 299.45 70.85Q302.87 68.06 307 62.48Q306.9 63.25 306.81 63.98Q306.72 64.71 306.72 65.27Q306.72 66.12 306.91 66.93Q307.29 68.5 308.38 69.89Q308.65 70.23 308.97 70.51Q310.64 72 313.63 72Q317.08 72 320.66 69.77Q324.27 67.57 327.44 63.65Q329.8 60.73 331.52 57.12Q332.83 54.71 334.63 50.88Q337.04 45.79 339.27 40.12Q341.07 41.36 342.85 42.86Q343.11 43.07 343.33 43.32Q344.64 44.78 344.64 47.41Q344.64 49.92 343.32 53.03Q342.03 56.15 340.7 59.32Q339.36 62.48 339.36 65.36Q339.36 67.19 340.16 68.55Q340.58 69.27 341.21 69.86Q341.35 69.99 341.5 70.11Q343.33 71.6 346.37 71.6Q347.01 71.6 347.65 71.54Q351.1 71.21 354.39 69.11Q358.28 66.63 361.44 62.74Q361.64 62.5 361.83 62.26Q361.84 65.29 363.07 67.71Q363.74 69 364.75 70.12Q365.04 70.43 365.34 70.71Q368.24 73.33 373.52 73.33Q374.21 73.33 374.89 73.28Q378.99 73 382.97 70.99Q387.63 68.64 391.61 64.42Q395.6 60.18 398.2 54.42L397.05 53.55Q395.48 56.56 393.47 59.23Q392.4 60.67 391.19 62.01Q387.75 65.85 383.72 68.2Q380.04 70.33 376.27 70.52Q375.9 70.54 375.54 70.54Q373.33 70.54 371.83 69.86Q370.61 69.32 369.81 68.41Q369.64 68.22 369.49 68.01Q369.02 67.36 368.71 66.65Q368.44 66.04 368.29 65.39Q367.97 63.93 367.97 62.48Q367.97 61.73 368.06 60.86Q368.15 60 368.34 59.03Q372.47 58.66 376.64 57.07Q380.83 55.47 384.33 52.99Q387.84 50.48 390 47.27Q391.43 45.14 391.91 42.81Q392.15 41.63 392.15 40.4Q392.15 37.16 390.58 35.92Q390.43 35.81 390.28 35.71Q389.32 35.11 388.27 34.82Q387.28 34.54 386.2 34.54Q381.98 34.54 377.65 37.19Q373.33 39.84 369.72 44.06Q366.14 48.28 363.98 53.08Q362.63 56.09 362.13 58.91Q360.44 61.08 358.35 63.07Q356.05 65.27 353.59 66.72Q351.15 68.15 348.85 68.15Q347.92 68.15 347.17 67.78Q347 67.69 346.84 67.59Q346.81 67.57 346.77 67.54Q345.97 66.94 345.97 65.27Q345.97 63.25 347.17 60.58Q348.39 57.89 349.58 54.91Q350.78 51.93 350.78 49.05Q350.78 46.05 349.35 44.1Q349.31 44.06 349.28 44.01Q347.92 42.21 346.2 40.9Q346.04 40.78 345.88 40.66Q343.96 39.25 342.46 38.15Q341.19 37.2 341.01 36.08Q340.98 35.9 340.98 35.71Q340.98 35.41 341.5 34.03Q342.03 32.64 342.03 32.15Q342.03 31.68 341.89 30.77Q341.83 30.38 341.61 30.16Q341.31 29.85 340.7 29.85Q339.92 29.85 338.28 31.68Q338 32 337.76 32.36Q336.67 34 336.67 36.37Q336.67 37.05 336.91 37.63Q337.15 38.21 337.63 38.69Q335.52 44.83 333.34 49.64Q331.9 52.84 330.82 55.02Q326.92 61.52 323.12 64.94Q318.9 68.74 316.3 68.74Q315.32 68.74 314.65 68.28Q314.15 67.94 313.82 67.35Q313.13 66.11 313.06 64.82Q313.04 64.66 313.04 64.5Q313.04 62.78 313.91 60.82Q314.78 58.85 315.83 56.92Q316.89 55 317.76 53.53Q318.62 52.03 318.62 51.16Q318.62 50.83 318.5 50.56Q318.33 50.19 317.94 49.92Q317.26 49.42 316.35 49.14Q315.46 48.86 314.87 48.77Q314.78 48.77 314.38 49.33Q312.48 52.21 309.98 55.68Q307.49 59.13 304.75 62.34Q302.01 65.55 299.4 67.64Q296.83 69.7 294.62 69.7Q293.78 69.7 293.21 69.3Q292.02 68.48 292.02 65.95Q292.02 63.16 293.17 59.62Q294.32 56.06 296.33 52.42Q298.35 48.77 300.95 45.65Q303.55 42.51 306.32 40.66Q309.11 38.78 311.8 38.78Q313.89 38.78 314.97 39.82Q315.23 40.07 315.44 40.38Q315.55 40.55 315.66 40.72Q316.51 42.19 316.51 44.15Q316.51 44.92 316.35 45.84Q316.21 46.75 316.02 47.5Q318.13 47.5 319.42 46.66Q319.54 46.58 319.65 46.49Q320.73 45.57 320.73 43.38Q320.73 41.66 320.03 40.3Q319.41 39.08 318.23 38.15Q317.89 37.89 317.54 37.66Q315.24 36.18 311.99 36.18Q308.24 36.18 304.44 38.1Q300.67 40.03 297.25 43.24Q296.51 43.93 295.81 44.66Q293.27 47.29 291.15 50.34Q288.48 54.23 286.96 58.21Q286.79 58.65 286.64 59.09Q285.91 60.18 285.12 61.21Q282.42 64.71 279.68 66.82Q276.96 68.92 274.76 68.92Q274.01 68.92 273.41 68.62Q273 68.41 272.67 68.06Q271.87 67.19 271.87 65.27Q271.87 62.88 272.93 60.3Q273.98 57.7 274.99 54.91Q275.46 53.6 275.71 52.25Q276 50.72 276 49.14Q276 48 275.78 46.9Q275.6 45.97 275.27 45.07Q274.85 43.92 274.13 43Q273.62 42.34 272.95 41.81Q271.38 40.5 268.69 40.5Q267.73 40.5 266.81 40.68Q265.25 40.98 263.79 41.81Q261.49 43.1 259.43 45.46Q257.37 47.81 255.54 50.92Q253.73 54.04 252.14 57.75Q250.54 61.42 249.21 65.36Q249.12 64.71 249.07 63.93Q249.02 63.16 249.02 62.1Q249.02 59.5 249.4 56.2Q249.79 52.89 250.59 49.45Q251.41 45.98 252.56 43.19Q255.94 41.17 259.19 37.68Q262.45 34.17 265.24 29.95Q268.03 25.73 270.14 21.37Q272.25 16.99 273.44 13.14Q274.64 9.3 274.64 6.63Q274.64 4.71 273.91 2.64Q273.44 1.25 272.51 0.79Q272.05 0.56 271.47 0.56Q269.37 0.56 266.48 3.84Q263.6 7.1 260.34 12.58Q257.08 18.04 253.97 24.77Q250.85 31.47 248.34 38.48Q245.86 45.49 244.31 51.84Q242.79 58.17 242.79 62.78Q242.79 66.63 243.84 69.7Q244.75 72.34 246.22 72.71ZM259.03 34.07Q256.5 37.33 253.83 39.44Q254.69 36.65 255.73 33.92Q256.87 30.93 258.23 28.03Q260.83 22.45 263.51 18.04Q266.2 13.64 268.26 10.99Q270.33 8.34 271.01 8.34Q271.1 8.34 271.17 8.38Q271.24 8.42 271.29 8.5Q271.38 8.64 271.38 9.11Q271.38 10.54 270.42 13.42Q269.46 16.31 267.72 19.87Q266.01 23.41 263.79 27.11Q261.58 30.82 259.03 34.07ZM374.67 54.67Q371.41 56.34 368.83 57.21Q369.79 53.76 371.69 50.32Q373.61 46.85 376 43.96Q378.42 41.08 381 39.3Q383.6 37.52 385.92 37.52Q387.14 37.52 387.52 38.09Q387.53 38.09 387.54 38.1Q387.93 38.69 387.93 39.75Q387.93 40.42 387.84 41.07Q387.5 43.42 385.97 45.6Q384 48.37 380.97 50.69Q377.95 52.99 374.67 54.67Z"
    fill="#3871E0"
    fill-opacity="1.000000"
    fill-rule="evenodd"
  />
</svg>
